<svg viewBox="0 0 48 48" xmlns="http://www.w3.org/2000/svg">
  <defs>
    <linearGradient id="ig" x1="0" y1="1" x2="1" y2="0">
      <stop offset="0" stop-color="#FEC163"/>
      <stop offset=".5" stop-color="#E95950"/>
      <stop offset="1" stop-color="#BC2A8D"/>
    </linearGradient>
  </defs>
  <rect width="48" height="48" rx="12" fill="url(#ig)"/>
  <path fill="#fff" d="M24 14.5c3.8 0 4.2 0 5.7.1 1.1.1 1.7.2 2 .4.5.2.8.4 1.2.8.4.4.6.7.8 1.2.2.3.3.9.4 2 .1 1.5.1 1.9.1 5.7s0 4.2-.1 5.7c-.1 1.1-.2 1.7-.4 2-.2.5-.4.8-.8 1.2-.4.4-.7.6-1.2.8-.3.2-.9.3-2 .4-1.5.1-1.9.1-5.7.1s-4.2 0-5.7-.1c-1.1-.1-1.7-.2-2-.4-.5-.2-.8-.4-1.2-.8-.4-.4-.6-.7-.8-1.2-.2-.3-.3-.9-.4-2-.1-1.5-.1-1.9-.1-5.7s0-4.2.1-5.7c.1-1.1.2-1.7.4-2 .2-.5.4-.8.8-1.2.4-.4.7-.6 1.2-.8.3-.2.9-.3 2-.4 1.5-.1 1.9-.1 5.7-.1zm0 3.2c-3.7 0-4.1 0-5.6.1-1 .1-1.5.2-1.9.3-.5.2-.8.4-1.1.7-.3.3-.5.6-.7 1.1-.1.4-.3.9-.3 1.9-.1 1.5-.1 1.9-.1 5.6s0 4.1.1 5.6c.1 1 .2 1.5.3 1.9.2.5.4.8.7 1.1.3.3.6.5 1.1.7.4.1.9.3 1.9.3 1.5.1 1.9.1 5.6.1s4.1 0 5.6-.1c1-.1 1.5-.2 1.9-.3.5-.2.8-.4 1.1-.7.3-.3.5-.6.7-1.1.1-.4.3-.9.3-1.9.1-1.5.1-1.9.1-5.6s0-4.1-.1-5.6c-.1-1-.2-1.5-.3-1.9-.2-.5-.4-.8-.7-1.1-.3-.3-.6-.5-1.1-.7-.4-.1-.9-.3-1.9-.3-1.5-.1-1.9-.1-5.6-.1zm0 3.8a6.5 6.5 0 110 13 6.5 6.5 0 010-13zm0 2.6a3.9 3.9 0 100 7.8 3.9 3.9 0 000-7.8zm7.8-3.3a1.5 1.5 0 110 3 1.5 1.5 0 010-3z"/>
</svg>
