<svg viewBox="0 0 48 48" xmlns="http://www.w3.org/2000/svg">
  <rect width="48" height="48" rx="10" fill="#000"/>
  <path d="M33 17.5c-2.8 0-5.1-2.1-5.5-4.9h-5.1v17.2c0 2.1-1.7 3.8-3.8 3.8-1.7 0-3.1-1.1-3.6-2.6-.2.5-.3 1-.3 1.6 0 3.1 2.6 5.6 5.8 5.6 3.6 0 6.5-2.9 6.5-6.4v-8.2c1.6 1.4 3.7 2.2 6 2.2v-4.3z" fill="#25F4EE"/>
  <path d="M33 19.8v3.1c-3 0-5.7-1.1-7.6-2.9v7.3c0 3.5-2.9 6.4-6.5 6.4-2 0-3.8-.9-4.9-2.3 1 .3 2.2.2 3.2-.3 1.4-.7 2.4-2.2 2.4-3.9V12.6h5.1c.5 2.8 2.8 4.9 5.5 4.9h.1z" fill="#FE2C55"/>
</svg>
