<svg xmlns="http://www.w3.org/2000/svg" viewBox="0 0 240 240">
  <rect width="240" height="240" rx="20" fill="#fff" stroke="#6B1E9C" stroke-width="8"/>
  <rect x="20" y="20" width="60" height="60" fill="#6B1E9C" opacity="0.9" rx="6"/>
  <rect x="160" y="20" width="60" height="60" fill="#6B1E9C" opacity="0.9" rx="6"/>
  <rect x="20" y="160" width="60" height="60" fill="#6B1E9C" opacity="0.9" rx="6"/>
  <g fill="#111">
    <rect x="100" y="40" width="20" height="20"/>
    <rect x="130" y="40" width="20" height="20"/>
    <rect x="100" y="70" width="50" height="20"/>
    <rect x="100" y="100" width="20" height="20"/>
    <rect x="130" y="100" width="20" height="20"/>
    <rect x="160" y="100" width="20" height="20"/>
    <rect x="100" y="130" width="20" height="20"/>
    <rect x="130" y="130" width="50" height="20"/>
    <rect x="100" y="160" width="20" height="20"/>
    <rect x="130" y="160" width="20" height="20"/>
    <rect x="160" y="160" width="20" height="20"/>
  </g>
  <text x="50%" y="228" text-anchor="middle" font-family="Arial, Helvetica, sans-serif"
        font-size="18" font-weight="700" fill="#6B1E9C">ZELLE</text>
</svg>